<svg width="49" height="48" viewBox="0 0 49 48" fill="none" xmlns="http://www.w3.org/2000/svg">
<rect width="48" height="48" transform="translate(0.683105)" fill="#81B3D2"/>
<g clip-path="url(#clip0_60847_462)">
<path fill-rule="evenodd" clip-rule="evenodd" d="M36.1331 17.948C36.2991 17.402 36.1331 17 35.3381 17H32.7131C32.0451 17 31.7371 17.347 31.5701 17.73C31.5701 17.73 30.2351 20.926 28.3441 23.002C27.7321 23.604 27.4541 23.795 27.1201 23.795C26.9531 23.795 26.7021 23.604 26.7021 23.057V17.948C26.7021 17.292 26.5181 17 25.9621 17H21.8341C21.4171 17 21.1661 17.304 21.1661 17.593C21.1661 18.214 22.1121 18.358 22.2091 20.106V23.904C22.2091 24.737 22.0561 24.888 21.7221 24.888C20.8321 24.888 18.6671 21.677 17.3821 18.003C17.1331 17.288 16.8811 17 16.2101 17H13.5831C12.8331 17 12.6831 17.347 12.6831 17.73C12.6831 18.412 13.5731 21.8 16.8281 26.281C18.9981 29.341 22.0531 31 24.8361 31C26.5051 31 26.7111 30.632 26.7111 29.997V27.684C26.7111 26.947 26.8691 26.8 27.3981 26.8C27.7881 26.8 28.4551 26.992 30.0131 28.467C31.7931 30.216 32.0861 31 33.0881 31H35.7131C36.4631 31 36.8391 30.632 36.6231 29.904C36.3851 29.18 35.5351 28.129 34.4081 26.882C33.7961 26.172 32.8781 25.407 32.5991 25.024C32.2101 24.533 32.3211 24.314 32.5991 23.877C32.5991 23.877 35.7991 19.451 36.1321 17.948H36.1331Z" fill="white"/>
</g>
<defs>
<clipPath id="clip0_60847_462">
<rect width="24" height="24" fill="white" transform="translate(12.6831 12)"/>
</clipPath>
</defs>
</svg>
